<?xml version="1.0" standalone="no"?><!DOCTYPE svg PUBLIC "-//W3C//DTD SVG 1.1//EN" "http://www.w3.org/Graphics/SVG/1.1/DTD/svg11.dtd"><svg t="1568815490242" class="icon" viewBox="0 0 1024 1024" version="1.1" xmlns="http://www.w3.org/2000/svg" p-id="8729" xmlns:xlink="http://www.w3.org/1999/xlink" width="10" height="10"><defs><style type="text/css"></style></defs><path d="M684.539185 670.094044c0 8.025078 4.012539 15.247649 11.23511 20.062696 7.222571 4.012539 16.852665 4.012539 22.470219 0 6.420063-4.012539 11.23511-11.23511 11.23511-20.062696 0-8.025078-4.012539-15.247649-11.23511-20.062696-7.222571-4.012539-16.852665-4.012539-22.470219 0-7.222571 3.210031-11.23511 12.037618-11.23511 20.062696z" fill="#2F9FEA" p-id="8730"></path><path d="M707.009404 604.288401c-36.112853 0-66.60815 30.495298-66.60815 64.200627 0 35.310345 30.495298 64.200627 66.60815 64.200627s66.60815-30.495298 66.608151-64.200627-28.890282-64.200627-66.608151-64.200627z m0 105.128527c-21.667712 0-41.730408-17.655172-41.730407-40.125392 0-21.667712 17.655172-40.125392 41.730407-40.125392 21.667712 0 41.730408 17.655172 41.730408 40.125392s-17.655172 40.125392-41.730408 40.125392z" fill="#2F9FEA" p-id="8731"></path><path d="M728.677116 259.210031H321.003135c-40.125392 0-73.028213 32.100313-73.028213 73.028214v457.429467c0 40.125392 32.902821 56.978056 74.633228 56.978056h445.39185-0.802508l-59.38558-42.532915-60.990595 42.532915h-2.407524c-0.802508 0-0.802508-0.802508-0.802508-2.407523V757.567398c0-0.802508 0-2.407524 0.802508-2.407523h2.407524l20.865203 6.420062c0.802508 0 2.407524 0.802508 2.407524 2.407524v32.100313l35.310345-25.68025h4.815047l35.310345 25.68025v-32.100313c0-0.802508 0.802508-2.407524 2.407523-2.407524l21.667712-7.22257h2.407523c0.802508 0 0.802508 0.802508 0.802508 2.407523v87.473355c0 0.802508-0.802508 2.407524-0.802508 2.407523h-0.802508 22.47022c4.815047 0 9.630094-4.012539 9.630094-9.630094V670.094044c0 50.557994-42.532915 93.090909-94.695925 93.090909s-94.695925-41.730408-94.695925-93.090909c0-50.557994 42.532915-93.090909 94.695925-93.090909s94.695925 41.730408 94.695925 93.090909V331.435737c-1.605016-40.125392-33.705329-72.225705-74.633229-72.225706zM580.213166 733.492163c0 2.407524-2.407524 4.012539-4.815047 4.012539H329.028213c-2.407524 0-4.815047-0.802508-4.815047-4.012539v-28.087774c0-2.407524 2.407524-4.012539 4.815047-4.012539h246.369906c2.407524 0 4.815047 0.802508 4.815047 4.012539v28.087774zM325.015674 623.548589v-28.890282c0-2.407524 2.407524-4.012539 4.815047-4.012539l236.739812 0.802508c2.407524 0 4.815047 2.407524 4.815047 4.815047v25.680251c0 2.407524-2.407524 4.815047-4.815047 4.815047L329.830721 625.956113c-3.210031 1.605016-4.815047-1.605016-4.815047-2.407524zM580.213166 513.605016c0 2.407524-2.407524 4.012539-4.815047 4.012539H329.028213c-2.407524 0-4.815047-0.802508-4.815047-4.012539v-28.087775c0-2.407524 2.407524-4.012539 4.815047-4.012539h246.369906c2.407524 0 4.815047 0.802508 4.815047 4.012539V513.605016z m73.830721-110.746082c0 2.407524-2.407524 4.012539-4.815047 4.012539H329.830721c-2.407524 0-4.815047-0.802508-4.815047-4.012539v-30.495298c0-2.407524 2.407524-4.012539 4.815047-4.012539h319.398119c2.407524 0 4.815047 0.802508 4.815047 4.012539v30.495298z" fill="#F97658" p-id="8732"></path><path d="M227.912226 240.752351c0 8.827586 7.222571 16.050157 16.050156 16.050157s16.050157-7.222571 16.050157-16.050157-7.222571-16.050157-16.050157-16.050157-16.050157 7.222571-16.050156 16.050157zM644.413793 134.018809c-12.037618 0-22.470219-9.630094-22.470219-22.47022s9.630094-22.470219 22.470219-22.470219c12.037618 0 22.470219 9.630094 22.47022 22.470219s-10.432602 22.470219-22.47022 22.47022z m0-32.100314c-5.617555 0-9.630094 4.815047-9.630094 9.630094s4.815047 9.630094 9.630094 9.630094 9.630094-4.815047 9.630094-9.630094-4.012539-9.630094-9.630094-9.630094z" fill="#FFE161" p-id="8733"></path><path d="M282.482759 155.68652c0 8.827586 7.222571 16.050157 16.050156 16.050157s16.050157-7.222571 16.050157-16.050157-7.222571-16.050157-16.050157-16.050156-16.050157 7.222571-16.050156 16.050156z" fill="#2F9FEA" p-id="8734"></path><path d="M887.573668 336.250784c0 8.827586 7.222571 16.050157 16.050156 16.050156s16.050157-7.222571 16.050157-16.050156-7.222571-16.050157-16.050157-16.050157-16.050157 7.222571-16.050156 16.050157zM452.61442 117.968652c-12.037618 0-22.470219-9.630094-22.470219-22.470219s9.630094-22.470219 22.470219-22.47022 22.470219 9.630094 22.470219 22.47022-10.432602 22.470219-22.470219 22.470219z m0-32.100313c-5.617555 0-9.630094 4.815047-9.630094 9.630094s4.815047 9.630094 9.630094 9.630094 9.630094-4.815047 9.630094-9.630094-4.012539-9.630094-9.630094-9.630094zM143.648903 320.200627c-4.012539 0-8.025078-4.012539-8.025079-8.025078v-24.075236c0-4.012539 4.012539-8.025078 8.025079-8.025078 4.815047 0 8.025078 4.012539 8.025078 8.025078v24.075236c0 4.012539-4.012539 8.025078-8.025078 8.025078z" fill="#F97658" p-id="8735"></path><path d="M163.711599 300.137931c0 4.012539-3.210031 8.025078-8.025079 8.025078h-24.075235c-4.012539 0-8.025078-4.012539-8.025078-8.025078s4.012539-8.025078 8.025078-8.025078h24.075235c4.012539 0 8.025078 3.210031 8.025079 8.025078z" fill="#F97658" p-id="8736"></path><path d="M792.075235 280.075235c-4.012539 0-8.025078-4.012539-8.025078-8.025078v-24.075235c0-4.012539 4.012539-8.025078 8.025078-8.025079 4.815047 0 8.025078 4.012539 8.025078 8.025079v24.075235c0 4.815047-4.012539 8.025078-8.025078 8.025078z" fill="#FFE161" p-id="8737"></path><path d="M812.137931 260.012539c0 4.012539-3.210031 8.025078-8.025078 8.025079h-24.075235c-4.012539 0-8.025078-4.012539-8.025079-8.025079s4.012539-8.025078 8.025079-8.025078h24.075235c4.012539 0 8.025078 4.012539 8.025078 8.025078z" fill="#FFE161" p-id="8738"></path><path d="M792.075235 152.476489c-4.012539 0-8.025078-4.012539-8.025078-8.025078v-24.075235c0-4.815047 4.012539-8.025078 8.025078-8.025079 4.815047 0 8.025078 3.210031 8.025078 8.025079v24.075235c0 4.012539-4.012539 8.025078-8.025078 8.025078z" fill="#2F9FEA" p-id="8739"></path><path d="M812.137931 132.413793c0 4.815047-3.210031 8.025078-8.025078 8.025078h-24.075235c-4.012539 0-8.025078-4.012539-8.025079-8.025078s4.012539-8.025078 8.025079-8.025078h24.075235c4.012539 0 8.025078 3.210031 8.025078 8.025078z" fill="#2F9FEA" p-id="8740"></path><path d="M198.219436 940.539185h-120.376176c-8.827586 0-16.050157-7.222571-16.050157-16.050157s7.222571-16.050157 16.050157-16.050157h120.376176c8.827586 0 16.050157 7.222571 16.050156 16.050157s-7.222571 16.050157-16.050156 16.050157z m678.92163 0h-72.225705c-8.827586 0-16.050157-7.222571-16.050157-16.050157s7.222571-16.050157 16.050157-16.050157h72.225705c8.827586 0 16.050157 7.222571 16.050157 16.050157s-6.420063 16.050157-16.050157 16.050157z m-594.658307 0h-20.062696c-8.827586 0-16.050157-7.222571-16.050157-16.050157s7.222571-16.050157 16.050157-16.050157h20.062696c8.827586 0 16.050157 7.222571 16.050156 16.050157s-7.222571 16.050157-16.050156 16.050157z m458.231975 0h-401.253919c-8.827586 0-16.050157-7.222571-16.050157-16.050157s7.222571-16.050157 16.050157-16.050157h401.253919c8.827586 0 16.050157 7.222571 16.050156 16.050157s-7.222571 16.050157-16.050156 16.050157zM856.275862 650.833856h-38.520376c-1.605016 0-3.210031-7.222571-3.210031-16.050157s1.605016-16.050157 3.210031-16.050157h38.520376c1.605016 0 3.210031 7.222571 3.210031 16.050157s-1.605016 16.050157-3.210031 16.050157zM856.275862 747.134796h-38.520376c-1.605016 0-3.210031-7.222571-3.210031-16.050157s1.605016-16.050157 3.210031-16.050156h38.520376c1.605016 0 3.210031 7.222571 3.210031 16.050156s-1.605016 16.050157-3.210031 16.050157zM856.275862 843.435737h-38.520376c-1.605016 0-3.210031-7.222571-3.210031-16.050157s1.605016-16.050157 3.210031-16.050157h38.520376c1.605016 0 3.210031 7.222571 3.210031 16.050157s-1.605016 16.050157-3.210031 16.050157zM756.76489 851.460815c-0.802508 0-1.605016 0-2.407523-0.802508l-79.448276-58.583072-80.250784 58.583072c-0.802508 0.802508-1.605016 0.802508-2.407523 0.802508s-1.605016 0-1.605016-0.802508c-1.605016-0.802508-2.407524-2.407524-2.407523-4.012539V728.677116c0-1.605016 0.802508-2.407524 1.605015-3.210031s2.407524-0.802508 4.012539-0.802508l28.087775 9.630094c1.605016 0.802508 3.210031 2.407524 3.210031 4.012539v44.137931l47.347962-34.507837c1.605016-0.802508 4.012539-0.802508 4.815047 0l46.545455 34.507837V738.30721c0-1.605016 0.802508-3.210031 3.210031-4.012539l28.087775-9.630094c1.605016-0.802508 2.407524 0 4.012539 0.802508 0.802508 0.802508 1.605016 2.407524 1.605015 3.210031v118.77116c0 1.605016-0.802508 3.210031-2.407523 4.012539h-1.605016z m-495.147335-20.865204c-36.915361 0-67.410658-30.495298-67.410658-67.410658V335.448276c0-36.915361 30.495298-67.410658 67.410658-67.410658h373.166144c36.915361 0 67.410658 30.495298 67.410658 67.410658v133.216301c0 2.407524-1.605016 4.012539-4.012539 4.012539h-28.087774c-2.407524 0-4.012539-1.605016-4.012539-4.012539V335.448276c0-16.852665-13.642633-30.495298-30.495298-30.495298H262.420063c-16.852665 0-30.495298 13.642633-30.495298 30.495298v427.736677c0 16.852665 13.642633 30.495298 30.495298 30.495298h289.705329c2.407524 0 4.012539 1.605016 4.012539 4.012539v28.087774c0 2.407524-1.605016 4.012539-4.012539 4.012539l-290.507837 0.802508zM674.106583 738.30721c-69.015674 0-125.191223-56.175549-125.191222-125.191223s56.175549-125.191223 125.191222-125.191222 125.191223 56.175549 125.191223 125.191222C800.100313 682.131661 743.122257 738.30721 674.106583 738.30721z m0-213.467085c-48.952978 0-88.275862 39.322884-88.275862 88.275862s39.322884 88.275862 88.275862 88.275863 88.275862-39.322884 88.275862-88.275863-39.322884-88.275862-88.275862-88.275862z" p-id="8741"></path><path d="M260.815047 726.269592c-2.407524 0-4.815047-2.407524-4.815047-4.815047v-34.507837c0-2.407524 2.407524-4.815047 4.815047-4.815047h251.987461c2.407524 0 4.815047 2.407524 4.815047 4.815047v34.507837c0 2.407524-2.407524 4.815047-4.815047 4.815047H260.815047zM260.815047 615.523511c-2.407524 0-4.815047-2.407524-4.815047-4.815047v-34.507837c0-2.407524 2.407524-4.815047 4.815047-4.815047h251.987461c2.407524 0 4.815047 2.407524 4.815047 4.815047v34.507837c0 2.407524-2.407524 4.815047-4.815047 4.815047H260.815047zM260.815047 505.579937c-2.407524 0-4.815047-2.407524-4.815047-4.815047v-34.507837c0-2.407524 2.407524-4.815047 4.815047-4.815047h251.987461c2.407524 0 4.815047 2.407524 4.815047 4.815047v34.507837c0 2.407524-2.407524 4.815047-4.815047 4.815047H260.815047zM260.815047 394.833856c-2.407524 0-4.815047-2.407524-4.815047-4.815047v-34.507837c0-2.407524 2.407524-4.815047 4.815047-4.815047h345.07837c2.407524 0 4.815047 2.407524 4.815047 4.815047v34.507837c0 2.407524-2.407524 4.815047-4.815047 4.815047h-345.07837z" fill="#2F9FEA" p-id="8742"></path></svg>