<?xml version="1.0" standalone="no"?><!DOCTYPE svg PUBLIC "-//W3C//DTD SVG 1.1//EN" "http://www.w3.org/Graphics/SVG/1.1/DTD/svg11.dtd"><svg t="1569242409774" class="icon" viewBox="0 0 1024 1024" version="1.1" xmlns="http://www.w3.org/2000/svg" p-id="1692" width="16" height="16" data-spm-anchor-id="a313x.7781069.0.i15" xmlns:xlink="http://www.w3.org/1999/xlink"><defs><style type="text/css"></style></defs><path d="M938.516 597.183H85.484C38.528 597.183 0 559.257 0 511.699c0-46.956 37.926-85.484 85.484-85.484h853.032c46.956 0 85.484 37.926 85.484 85.484 0 47.558-37.926 85.484-85.484 85.484zM512.301 1024c-46.956 0-85.484-37.926-85.484-85.484V85.484C426.817 37.926 464.743 0 512.301 0c46.956 0 85.484 37.926 85.484 85.484v853.634C597.183 985.472 559.257 1024 512.3 1024z m0 0" p-id="1693" data-spm-anchor-id="a313x.7781069.0.i8" class="selected" fill="#e98f36"></path></svg>