<?xml version="1.0" standalone="no"?><!DOCTYPE svg PUBLIC "-//W3C//DTD SVG 1.1//EN" "http://www.w3.org/Graphics/SVG/1.1/DTD/svg11.dtd"><svg t="1568817227060" class="icon" viewBox="0 0 1024 1024" version="1.1" xmlns="http://www.w3.org/2000/svg" p-id="10182" xmlns:xlink="http://www.w3.org/1999/xlink" width="10" height="10"><defs><style type="text/css"></style></defs><path d="M544.902821 356.31348C505.579937 309.768025 446.194357 247.172414 381.99373 247.172414c-115.561129 0-209.454545 90.683386-209.454545 201.429467 0 66.60815 33.705329 113.153605 60.990596 150.068965 78.645768 109.141066 276.062696 243.962382 284.087774 249.579938s17.655172 8.025078 26.482758 8.025078l0.802508-499.962382z" fill="#F97658" p-id="10183"></path><path d="M540.890282 857.880878c9.630094 0 19.260188-3.210031 26.482759-8.025079 8.025078-5.617555 206.244514-141.241379 284.087774-249.579937 27.285266-37.717868 60.990596-84.263323 60.990596-150.068965C912.451411 338.658307 818.557994 248.777429 702.996865 248.777429c-64.200627 0-123.586207 61.793103-162.909091 109.141066l0.802508 499.962383z" fill="#2F9FEA" p-id="10184"></path><path d="M219.887147 273.655172c0 8.827586 7.222571 16.050157 16.050157 16.050157s16.050157-7.222571 16.050157-16.050157-7.222571-16.050157-16.050157-16.050156-16.050157 7.222571-16.050157 16.050156zM636.388715 166.92163c-12.037618 0-22.470219-9.630094-22.47022-22.470219 0-12.840125 9.630094-22.470219 22.47022-22.47022 12.037618 0 22.470219 9.630094 22.470219 22.47022 0 12.840125-9.630094 22.470219-22.470219 22.470219z m0-32.100313c-5.617555 0-9.630094 4.815047-9.630094 9.630094s4.815047 10.432602 9.630094 10.432602 9.630094-4.815047 9.630094-10.432602c0-5.617555-4.012539-9.630094-9.630094-9.630094z" fill="#FFE161" p-id="10185"></path><path d="M274.45768 189.39185c0 8.827586 7.222571 16.050157 16.050157 16.050156s16.050157-7.222571 16.050157-16.050156-7.222571-16.050157-16.050157-16.050157-16.050157 7.222571-16.050157 16.050157z" fill="#2F9FEA" p-id="10186"></path><path d="M879.548589 369.153605c0 8.827586 7.222571 16.050157 16.050157 16.050157s16.050157-7.222571 16.050157-16.050157-7.222571-16.050157-16.050157-16.050157-16.050157 7.222571-16.050157 16.050157zM444.589342 150.871473c-12.037618 0-22.470219-9.630094-22.47022-22.470219s9.630094-22.470219 22.47022-22.47022c12.037618 0 22.470219 9.630094 22.470219 22.47022s-10.432602 22.470219-22.470219 22.470219z m0-32.100313c-5.617555 0-9.630094 4.815047-9.630094 9.630094s4.815047 9.630094 9.630094 9.630094 9.630094-4.815047 9.630094-9.630094-4.012539-9.630094-9.630094-9.630094zM135.623824 353.103448c-4.815047 0-8.025078-4.012539-8.025078-8.025078v-24.075235c0-4.012539 3.210031-8.025078 8.025078-8.025079s8.025078 4.012539 8.025079 8.025079v24.075235c0 4.815047-3.210031 8.025078-8.025079 8.025078z" fill="#F97658" p-id="10187"></path><path d="M155.68652 333.040752c0 4.012539-3.210031 8.025078-8.025078 8.025079h-24.075235c-4.815047 0-8.025078-4.012539-8.025078-8.025079s3.210031-8.025078 8.025078-8.025078h24.075235c4.815047 0 8.025078 4.012539 8.025078 8.025078z" fill="#F97658" p-id="10188"></path><path d="M832.200627 289.705329c-4.815047 0-8.025078-4.012539-8.025078-8.025078v-24.075235c0-4.012539 3.210031-8.025078 8.025078-8.025079 4.012539 0 8.025078 4.012539 8.025078 8.025079v24.075235c0 4.012539-4.012539 8.025078-8.025078 8.025078z" fill="#FFE161" p-id="10189"></path><path d="M852.263323 269.642633c0 4.012539-4.012539 8.025078-8.025078 8.025079h-24.075236c-4.815047 0-8.025078-4.012539-8.025078-8.025079s3.210031-8.025078 8.025078-8.025078h24.075236c4.012539 0 8.025078 3.210031 8.025078 8.025078z" fill="#FFE161" p-id="10190"></path><path d="M784.050157 185.37931c-4.012539 0-8.025078-4.012539-8.025079-8.025078v-24.075235c0-4.815047 4.012539-8.025078 8.025079-8.025079 4.815047 0 8.025078 3.210031 8.025078 8.025079v24.075235c0 4.012539-4.012539 8.025078-8.025078 8.025078z" fill="#2F9FEA" p-id="10191"></path><path d="M804.112853 165.316614c0 4.012539-3.210031 8.025078-8.025079 8.025079h-24.075235c-4.012539 0-8.025078-4.012539-8.025078-8.025079s4.012539-8.025078 8.025078-8.025078h24.075235c4.012539 0 8.025078 3.210031 8.025079 8.025078z" fill="#2F9FEA" p-id="10192"></path><path d="M195.811912 962.206897h-120.376175c-8.827586 0-16.050157-7.222571-16.050157-16.050157s7.222571-16.050157 16.050157-16.050157h120.376175c8.827586 0 16.050157 7.222571 16.050157 16.050157s-7.222571 16.050157-16.050157 16.050157z m678.92163 0h-72.225705c-8.827586 0-16.050157-7.222571-16.050157-16.050157s7.222571-16.050157 16.050157-16.050157h72.225705c8.827586 0 16.050157 7.222571 16.050157 16.050157s-6.420063 16.050157-16.050157 16.050157z m-594.658307 0h-20.062696c-8.827586 0-16.050157-7.222571-16.050157-16.050157s7.222571-16.050157 16.050157-16.050157h20.062696c8.827586 0 16.050157 7.222571 16.050157 16.050157s-7.222571 16.050157-16.050157 16.050157z m458.231975 0H337.053292c-8.827586 0-16.050157-7.222571-16.050157-16.050157s7.222571-16.050157 16.050157-16.050157h401.253918c8.827586 0 16.050157 7.222571 16.050157 16.050157s-7.222571 16.050157-16.050157 16.050157zM895.598746 673.304075H712.626959c-8.827586 0-16.050157-7.222571-16.050156-16.050157s7.222571-16.050157 16.050156-16.050156h182.971787c8.827586 0 16.050157 7.222571 16.050157 16.050156s-7.222571 16.050157-16.050157 16.050157zM880.351097 768.802508H711.021944c-8.025078 0-15.247649-7.222571-15.247649-16.050157s6.420063-16.050157 15.247649-16.050157h169.329153c8.025078 0 15.247649 7.222571 15.247649 16.050157s-6.420063 16.050157-15.247649 16.050157zM784.852665 865.103448H703.799373c-4.012539 0-7.222571-7.222571-7.22257-16.050156s3.210031-16.050157 7.22257-16.050157h81.053292c4.012539 0 7.222571 7.222571 7.22257 16.050157s-3.210031 16.050157-7.22257 16.050156zM367.548589 601.880878c-1.605016-6.420063-5.617555-11.23511-11.235109-15.247649-21.667712-16.050157-31.297806-29.69279-40.125392-56.978057-7.222571-20.062696-8.827586-38.520376-4.012539-60.990595 2.407524-15.247649-8.025078-29.69279-23.272728-32.902822-15.247649-2.407524-29.69279 8.025078-32.902821 23.272728h-0.802508c-4.012539 24.075235-2.407524 48.952978 3.210032 72.225705 10.432602 40.9279 36.112853 72.225705 67.410658 95.498433 0.802508 0.802508 2.407524 1.605016 3.210031 2.407523 12.037618 7.222571 27.285266 4.012539 35.310345-8.025078 4.012539-4.815047 5.617555-12.840125 3.210031-19.260188z" p-id="10193"></path><path d="M824.175549 489.529781c0-208.652038-229.517241-285.69279-341.065831-141.24138-87.473354-146.056426-339.460815-63.398119-339.460815 142.846395-1.605016 133.216301 118.77116 225.504702 199.021943 279.272728 77.84326 51.360502 131.611285 76.238245 141.24138 76.238244 7.222571 0 35.310345-12.037618 75.435736-34.507837 9.630094-4.815047 16.050157-13.642633 16.050157-24.877743 0-15.247649-9.630094-25.680251-24.877743-25.680251-4.815047 0-15.247649 4.815047-15.247649 4.815047-25.680251 14.445141-45.742947 24.075235-50.557993 24.075235-8.025078 0-52.163009-22.470219-115.561129-63.398119-64.200627-43.335423-170.131661-122.783699-177.354232-229.517241-5.617555-82.658307 64.200627-174.144201 149.266458-174.946709 97.905956-1.605016 142.846395 99.510972 142.846395 99.510972s58.583072-103.523511 159.699059-102.721003C730.282132 320.200627 783.247649 433.354232 776.827586 499.159875c-8.827586 90.683386-90.683386 160.501567-141.241379 195.811912 0 0-12.037618 8.827586-12.037618 21.667711 0.802508 15.247649 12.037618 26.482759 27.285267 26.482759 5.617555 0 11.23511-1.605016 15.247649-4.815047l2.407523-1.605016c73.830721-56.978056 156.489028-137.22884 155.686521-247.172413z" p-id="10194"></path></svg>