<?xml version="1.0" standalone="no"?><!DOCTYPE svg PUBLIC "-//W3C//DTD SVG 1.1//EN" "http://www.w3.org/Graphics/SVG/1.1/DTD/svg11.dtd"><svg t="1568815663613" class="icon" viewBox="0 0 1024 1024" version="1.1" xmlns="http://www.w3.org/2000/svg" p-id="8870" xmlns:xlink="http://www.w3.org/1999/xlink" width="10" height="10"><defs><style type="text/css"></style></defs><path d="M308.163009 309.768025c0-24.877743 20.062696-41.730408 40.125392-41.730407h398.846395c24.075235 0 40.125392 16.852665 40.125392 41.730407v497.554859c0 24.877743-16.050157 37.717868-40.125392 28.890282l-199.824451-70.62069-199.824452 70.62069c-20.062696 8.025078-40.125392-4.012539-40.125391-28.890282v-497.554859h0.802507z m255.197493 298.532915l40.125391 20.865204c8.025078 4.012539 16.050157 0 12.037618-12.840125l-4.012539-45.742947c0-12.840125 4.012539-28.890282 12.037617-32.902821l32.100314-32.902822c8.025078-8.025078 4.012539-16.852665-8.025079-16.852664l-44.137931-8.025078c-12.037618-4.012539-24.075235-12.840125-28.087774-24.877743l-20.062696-41.730408c-4.012539-8.025078-12.037618-12.840125-16.050157 0l-20.062695 41.730408c-4.012539 12.840125-20.062696 20.865204-28.087775 24.877743l-44.137931 4.012539c-12.037618 0-12.037618 8.025078-8.025078 16.852664l32.100313 32.902822c8.025078 12.840125 16.050157 24.877743 12.037618 37.717868l-8.025079 49.755486c0 12.840125 4.012539 16.852665 12.037618 12.840125l40.125392-20.865204c12.037618-8.827586 28.087774-8.827586 36.112853-4.815047z" fill="#F97658" p-id="8871"></path><path d="M647.623824 140.438871c-12.037618 0-22.470219-9.630094-22.470219-22.470219s9.630094-22.470219 22.470219-22.470219 22.470219 9.630094 22.47022 22.470219-10.432602 22.470219-22.47022 22.470219z m0-32.100313c-5.617555 0-9.630094 4.815047-9.630094 9.630094s4.815047 10.432602 9.630094 10.432602 9.630094-4.815047 9.630094-10.432602-4.012539-9.630094-9.630094-9.630094z" fill="#FFE161" p-id="8872"></path><path d="M284.890282 162.909091c0 8.827586 7.222571 16.050157 16.050157 16.050157s16.050157-7.222571 16.050157-16.050157-7.222571-16.050157-16.050157-16.050157-16.050157 7.222571-16.050157 16.050157z" fill="#2F9FEA" p-id="8873"></path><path d="M889.981191 342.670846c0 8.827586 7.222571 16.050157 16.050157 16.050157s16.050157-7.222571 16.050157-16.050157-7.222571-16.050157-16.050157-16.050156-16.050157 7.222571-16.050157 16.050156zM455.824451 124.388715c-12.037618 0-22.470219-9.630094-22.470219-22.47022s9.630094-22.470219 22.470219-22.470219c12.037618 0 22.470219 9.630094 22.47022 22.470219s-10.432602 22.470219-22.47022 22.47022z m0-32.100314c-5.617555 0-9.630094 4.815047-9.630094 9.630094s4.815047 9.630094 9.630094 9.630094 9.630094-4.815047 9.630094-9.630094-4.815047-9.630094-9.630094-9.630094zM146.056426 326.62069c-4.012539 0-8.025078-4.012539-8.025078-8.025079v-24.075235c0-4.012539 4.012539-8.025078 8.025078-8.025078 4.815047 0 8.025078 4.012539 8.025079 8.025078v24.075235c0 4.815047-3.210031 8.025078-8.025079 8.025079z" fill="#F97658" p-id="8874"></path><path d="M794.482759 287.297806c-4.815047 0-8.025078-4.012539-8.025079-8.025079v-24.075235c0-4.012539 3.210031-8.025078 8.025079-8.025078 4.012539 0 8.025078 4.012539 8.025078 8.025078v24.075235c0 4.012539-3.210031 8.025078-8.025078 8.025079z" fill="#FFE161" p-id="8875"></path><path d="M814.545455 267.23511c0 4.012539-4.012539 8.025078-8.025079 8.025078h-24.075235c-4.815047 0-8.025078-4.012539-8.025078-8.025078s3.210031-8.025078 8.025078-8.025079h24.075235c4.815047 0 8.025078 3.210031 8.025079 8.025079z" fill="#FFE161" p-id="8876"></path><path d="M794.482759 158.896552c-4.815047 0-8.025078-4.012539-8.025079-8.025079v-24.075235c0-4.815047 3.210031-8.025078 8.025079-8.025078 4.012539 0 8.025078 3.210031 8.025078 8.025078v24.075235c0 4.012539-3.210031 8.025078-8.025078 8.025079z" fill="#2F9FEA" p-id="8877"></path><path d="M814.545455 138.833856c0 4.012539-4.012539 8.025078-8.025079 8.025078h-24.075235c-4.815047 0-8.025078-4.012539-8.025078-8.025078s3.210031-8.025078 8.025078-8.025079h24.075235c4.815047 0 8.025078 3.210031 8.025079 8.025079z" fill="#2F9FEA" p-id="8878"></path><path d="M227.912226 935.724138h-120.376176c-8.827586 0-16.050157-7.222571-16.050157-16.050157s7.222571-16.050157 16.050157-16.050157h120.376176c8.827586 0 16.050157 7.222571 16.050156 16.050157s-7.222571 16.050157-16.050156 16.050157z m679.724138 0h-72.225706c-8.827586 0-16.050157-7.222571-16.050156-16.050157s7.222571-16.050157 16.050156-16.050157h72.225706c8.827586 0 16.050157 7.222571 16.050156 16.050157s-7.222571 16.050157-16.050156 16.050157z m-594.658308 0h-20.062695c-8.827586 0-16.050157-7.222571-16.050157-16.050157s7.222571-16.050157 16.050157-16.050157H312.978056c8.827586 0 16.050157 7.222571 16.050157 16.050157s-7.222571 16.050157-16.050157 16.050157z m458.231975 0h-401.253918c-8.827586 0-16.050157-7.222571-16.050157-16.050157s7.222571-16.050157 16.050157-16.050157h401.253918c8.827586 0 16.050157 7.222571 16.050157 16.050157s-7.222571 16.050157-16.050157 16.050157zM817.755486 646.821317h-120.376176c-5.617555 0-10.432602-7.222571-10.432602-16.050157s4.815047-16.050157 10.432602-16.050157h120.376176c5.617555 0 10.432602 7.222571 10.432602 16.050157s-4.815047 16.050157-10.432602 16.050157zM817.755486 742.319749h-120.376176c-5.617555 0-10.432602-7.222571-10.432602-16.050157s4.815047-16.050157 10.432602-16.050156h120.376176c5.617555 0 10.432602 7.222571 10.432602 16.050156s-4.815047 16.050157-10.432602 16.050157zM817.755486 838.62069h-120.376176c-5.617555 0-10.432602-7.222571-10.432602-16.050157s4.815047-16.050157 10.432602-16.050157h120.376176c5.617555 0 10.432602 7.222571 10.432602 16.050157s-4.815047 16.050157-10.432602 16.050157z" p-id="8879"></path><path d="M669.291536 834.60815L478.294671 737.504702l-203.034483 97.905956c-22.470219 12.840125-44.940439-0.802508-44.940439-28.087774V319.398119c0-24.075235 18.45768-43.335423 41.730408-43.335423h400.45141c22.470219 0 41.730408 19.260188 41.730408 43.335423v487.924765c-0.802508 27.285266-22.470219 40.9279-44.940439 27.285266zM258.407524 319.398119v487.924765c0 4.815047 0 4.815047 4.012539 2.407524l209.454545-101.115988c4.012539-2.407524 8.827586-2.407524 12.840126 0L682.131661 809.730408c4.012539 2.407524 3.210031 2.407524 3.210032-2.407524V319.398119c0-8.025078-6.420063-14.445141-13.642633-14.445141H271.247649c-6.420063 0-12.840125 6.420063-12.840125 14.445141z" p-id="8880"></path><path d="M582.62069 453.416928c0 9.630094-7.222571 16.852665-16.852665 16.852664H370.758621c-9.630094 0-16.852665-7.222571-16.852665-16.852664s7.222571-16.852665 16.852665-16.852665h195.009404c9.630094 0 16.852665 7.222571 16.852665 16.852665z m0 84.263323c0 9.630094-7.222571 16.852665-16.852665 16.852664H370.758621c-9.630094 0-16.852665-8.025078-16.852665-17.655172 0-8.827586 7.222571-16.050157 16.852665-16.852665h195.009404c9.630094 0.802508 16.852665 8.025078 16.852665 17.655173z" fill="#2F9FEA" p-id="8881"></path></svg>